<?xml version="1.0" encoding="UTF-8" standalone="no"?>
<svg
   xmlns:dc="http://purl.org/dc/elements/1.1/"
   xmlns:cc="http://creativecommons.org/ns#"
   xmlns:rdf="http://www.w3.org/1999/02/22-rdf-syntax-ns#"
   xmlns:svg="http://www.w3.org/2000/svg"
   xmlns="http://www.w3.org/2000/svg"
   xmlns:sodipodi="http://sodipodi.sourceforge.net/DTD/sodipodi-0.dtd"
   xmlns:inkscape="http://www.inkscape.org/namespaces/inkscape"
   version="1.0"
   x="0"
   y="0"
   width="360"
   height="240"
   id="svg18"
   sodipodi:docname="AFR.svg"
   inkscape:version="1.0 (4035a4fb49, 2020-05-01)">
  <metadata
     id="metadata24">
    <rdf:RDF>
      <cc:Work
         rdf:about="">
        <dc:format>image/svg+xml</dc:format>
        <dc:type
           rdf:resource="http://purl.org/dc/dcmitype/StillImage" />
        <dc:title />
      </cc:Work>
    </rdf:RDF>
  </metadata>
  <defs
     id="defs22" />
  <sodipodi:namedview
     inkscape:document-rotation="0"
     pagecolor="#ffffff"
     bordercolor="#666666"
     borderopacity="1"
     objecttolerance="10"
     gridtolerance="10"
     guidetolerance="10"
     inkscape:pageopacity="0"
     inkscape:pageshadow="2"
     inkscape:window-width="1558"
     inkscape:window-height="947"
     id="namedview20"
     showgrid="false"
     inkscape:zoom="3.2181386"
     inkscape:cx="139.91974"
     inkscape:cy="70.710369"
     inkscape:window-x="8"
     inkscape:window-y="43"
     inkscape:window-maximized="0"
     inkscape:current-layer="svg18"
     showguides="false" />
  <rect
     width="360"
     height="240"
     x="0"
     y="0"
     fill="#ce1126"
     id="rect10"
     style="fill:#cd0000;fill-opacity:1;stroke-width:0;stroke-miterlimit:4;stroke-dasharray:none" />
  <polygon
     points="360,0 0,240 360,240"
     fill="#000000"
     id="polygon12"
     style="stroke-width:0;stroke-miterlimit:4;stroke-dasharray:none" />
  <rect
     width="360"
     height="40"
     x="0"
     y="100"
     fill="#ffffff"
     id="rect14" />
  <rect
     width="40"
     height="240"
     x="100"
     y="0"
     fill="#ffffff"
     id="rect16" />
  <rect
     style="fill:#55cdfc;fill-rule:evenodd;stroke-width:0;fill-opacity:1;stroke-miterlimit:4;stroke-dasharray:none"
     id="rect28"
     width="8"
     height="240"
     x="100"
     y="0" />
  <rect
     y="0"
     x="132"
     height="240"
     width="8"
     id="rect28-4"
     style="fill:#55cdfc;fill-opacity:1;fill-rule:evenodd;stroke-width:0;stroke-miterlimit:4;stroke-dasharray:none" />
  <rect
     style="fill:#f7a8b8;fill-opacity:1;stroke-width:0;stroke-miterlimit:4;stroke-dasharray:none"
     id="rect868"
     width="8"
     height="240"
     x="108"
     y="0" />
  <rect
     y="0"
     x="124"
     height="240"
     width="8"
     id="rect868-9"
     style="fill:#f7a8b8;fill-opacity:1;stroke-width:0;stroke-miterlimit:4;stroke-dasharray:none" />
  <rect
     style="fill:#ff001a;fill-opacity:1;stroke-width:0;stroke-miterlimit:4;stroke-dasharray:none"
     id="rect885"
     width="360"
     height="6.6659999"
     x="0"
     y="100" />
  <rect
     y="106.666"
     x="0"
     height="6.6659999"
     width="360"
     id="rect885-4"
     style="fill:#ffa52c;fill-opacity:1;stroke-width:0;stroke-miterlimit:4;stroke-dasharray:none" />
  <rect
     style="fill:#ffff41;fill-opacity:1;stroke-width:0;stroke-miterlimit:4;stroke-dasharray:none"
     id="rect885-4-4"
     width="360"
     height="6.6659999"
     x="0"
     y="113.332" />
  <rect
     y="119.998"
     x="0"
     height="6.6659999"
     width="360"
     id="rect885-4-4-4"
     style="fill:#008018;fill-opacity:1;stroke-width:0;stroke-miterlimit:4;stroke-dasharray:none" />
  <rect
     style="fill:#0000f9;fill-opacity:1;stroke-width:0;stroke-miterlimit:4;stroke-dasharray:none"
     id="rect885-4-4-4-2"
     width="360"
     height="6.6659999"
     x="0"
     y="126.664" />
  <rect
     y="133.334"
     x="0"
     height="6.6659999"
     width="360"
     id="rect885-4-4-4-2-9"
     style="fill:#86007d;fill-opacity:1;stroke-width:0;stroke-miterlimit:4;stroke-dasharray:none" />
  <path
     style="fill:#ffffff;fill-opacity:1;stroke-width:0;stroke-miterlimit:4;stroke-dasharray:none"
     id="path1147"
     cx="120.85335"
     cy="121.92015"
     r="41.605251" />
  <circle
     r="41.638977"
     cy="121.80955"
     cx="120.56659"
     id="path858"
     style="fill:#ffffff;stroke-width:0" />
  <g
     id="g10"
     transform="matrix(0.31869332,0,0,-0.31869332,74.766628,169.17554)">
    <g
       id="g12"
       transform="scale(0.1)">
      <path
         d="m 378.75,1483.75 c 0,0 235,-222.5 475,-255 240,-32.5 330,-37.5 517.5,25 187.5,62.5 277.5,52.5 357.5,-2.5 L 1411.25,367.5 c 0,0 -72.49,-2.922 -110,11.25 l 167.5,492.5 c 0,0 -112.5,72.5 -195,67.5 -82.5,-5 -207.5,-27.5 -280,-17.5 -72.5,10 -584.16,68.34 -615,562.5"
         style="fill:#050301;fill-opacity:1;fill-rule:nonzero;stroke:none"
         id="path14" />
      <path
         d="m 701.25,2240.41 c 0,0 160,-213.32 500,-196.66 340,16.66 374.17,63.33 463.34,106.66 92.61,45.02 156.65,96.67 289.99,90 133.34,-6.66 260.01,-79.99 323.34,-153.32 63.33,-73.34 103.32,-113.34 156.66,-143.34 l -532.49,-1480 c 0,0 -58.33,-35 -124.18,-46.66 l 243.34,726.66 c 0,0 -226.67,186.66 -433.34,200 0,0 -100,6.67 -210,-36.66 0,0 -83.32,-43.34 -273.32,-53.34 -190,-10 -466.668,36.66 -720,280 0,0 -15.84,362.5 316.66,706.66"
         style="fill:#ee2629;fill-opacity:1;fill-rule:nonzero;stroke:none"
         id="path16" />
      <path
         d="M 1460,327.5 C 834.531,327.5 327.5,834.531 327.5,1460 c 0,625.46 507.031,1132.5 1132.5,1132.5 625.46,0 1132.5,-507.04 1132.5,-1132.5 C 2592.5,834.531 2085.46,327.5 1460,327.5 Z m 0,2592.5 C 653.66,2920 0,2266.34 0,1460 0,653.66 653.66,0 1460,0 c 806.34,0 1460,653.66 1460,1460 0,806.34 -653.66,1460 -1460,1460"
         style="fill:#050301;fill-opacity:1;fill-rule:nonzero;stroke:none"
         id="path18" />
    </g>
  </g>
  <path
     id="path1149"
     stroke-width="0.096402"
     d="m 48.843135,19.108483 c -15.90624,0 -28.9206,13.01436 -28.9206,28.9206 0,15.90624 13.01436,28.9206 28.9206,28.9206 15.90624,0 28.9206,-13.01436 28.9206,-28.9206 0,-15.90624 -13.01436,-28.9206 -28.9206,-28.9206 z m 3.85268,6.49133 c 10.77286,1.81379 18.89832,11.11462 18.89832,22.42927 0,4.20137 -1.12138,8.12437 -3.08149,11.49027 z m -7.71301,10e-4 -15.81296,33.91115 c -1.95764,-3.36451 -3.07734,-7.28526 -3.07734,-11.48334 0,-11.31137 8.12145,-20.61078 18.8903,-22.42781 z m 3.85669,6.32773 7.32752,15.71423 h -14.65541 z m -10.20483,21.88383 h 20.40929 l 5.1527,11.04977 c -4.03741,3.68107 -9.41856,5.91674 -15.35388,5.91674 -5.93752,0 -11.32085,-2.23786 -15.35862,-5.92148 z" />
</svg>
